# xmcd
#
# Track frame offsets: 
#        150
#        20005
#        33837
#        50537
#        64000
#        77487
#        96650
#        107725
#        119350
#        137262
#        157750
#        178612
#        200775
#        219617
#        234675
#        257532
#        269362
#
# Disc length: 3958 seconds
#
# Revision: 3
# Processed by: cddbd v1.5PL3 Copyright (c) Steve Scherf et al.
# Submitted via: ExactAudioCopy v0.90b4
#
DISCID=eb0f7411
DTITLE=Chris LeDoux - Live
DYEAR=1997
DGENRE=Country
TTITLE0=Take Me To The Rodeo
TTITLE1=County Fair
TTITLE2=Wild And Wooly
TTITLE3=Cadillac Ranch
TTITLE4=Whatcha Gonna Do With A Cowboy
TTITLE5=Riding For A Fall
TTITLE6=Copenhagen
TTITLE7=Copenhagen Angel
TTITLE8=Bareback Jack
TTITLE9=This Cowboy's Hat
TTITLE10=Gravitational Pull
TTITLE11=Honky Tonk World
TTITLE12=Hooked On An 8 Second Ride
TTITLE13=Cadillac Cowboy
TTITLE14=For Your Love
TTITLE15=You Just Can't See Him From The Road
TTITLE16=Little Long Haired Outlaw
EXTD=YEAR: 1997 ID3G: 2
EXTT0=
EXTT1=
EXTT2=
EXTT3=
EXTT4=
EXTT5=
EXTT6=
EXTT7=
EXTT8=
EXTT9=
EXTT10=
EXTT11=
EXTT12=
EXTT13=
EXTT14=
EXTT15=
EXTT16=
PLAYORDER=
